<mxfile host="65bd71144e" scale="1" border="10">
    <diagram id="gdUvleXatDT4JzoaOzgu" name="Arquitetura">
        <mxGraphModel dx="1645" dy="596" grid="1" gridSize="10" guides="1" tooltips="1" connect="1" arrows="1" fold="1" page="1" pageScale="1" pageWidth="850" pageHeight="1100" background="#ffffff" math="0" shadow="0">
            <root>
                <mxCell id="0"/>
                <mxCell id="1" parent="0"/>
                <mxCell id="h52EhWeXdkFsN7Ld-P_R-19" value="AWS Cloud" style="sketch=0;outlineConnect=0;gradientColor=none;html=1;whiteSpace=wrap;fontSize=12;fontStyle=0;shape=mxgraph.aws4.group;grIcon=mxgraph.aws4.group_aws_cloud;strokeColor=#AAB7B8;fillColor=none;verticalAlign=top;align=left;spacingLeft=30;fontColor=#AAB7B8;dashed=0;labelBackgroundColor=default;rounded=1;movable=1;resizable=1;rotatable=1;deletable=1;editable=1;connectable=1;" parent="1" vertex="1">
                    <mxGeometry x="-10" y="60" width="1410" height="1150" as="geometry"/>
                </mxCell>
                <mxCell id="h52EhWeXdkFsN7Ld-P_R-20" value="Private VPC" style="sketch=0;outlineConnect=0;gradientColor=none;html=1;whiteSpace=wrap;fontSize=12;fontStyle=0;shape=mxgraph.aws4.group;grIcon=mxgraph.aws4.group_vpc;strokeColor=#879196;fillColor=none;verticalAlign=top;align=left;spacingLeft=30;fontColor=#879196;dashed=0;labelBackgroundColor=default;rounded=1;movable=1;resizable=1;rotatable=1;deletable=1;editable=1;connectable=1;" parent="1" vertex="1">
                    <mxGeometry x="280" y="90" width="1100" height="1100" as="geometry"/>
                </mxCell>
                <mxCell id="2" value="Health&amp;amp;Med" style="text;strokeColor=none;fillColor=none;html=1;fontSize=24;fontStyle=1;verticalAlign=middle;align=center;rounded=1;" parent="1" vertex="1">
                    <mxGeometry x="889.99" y="20" width="100" height="40" as="geometry"/>
                </mxCell>
                <mxCell id="h52EhWeXdkFsN7Ld-P_R-56" style="edgeStyle=orthogonalEdgeStyle;curved=1;html=1;entryX=0;entryY=0.5;entryDx=0;entryDy=0;entryPerimeter=0;rounded=1;" parent="1" source="h52EhWeXdkFsN7Ld-P_R-12" target="h52EhWeXdkFsN7Ld-P_R-22" edge="1">
                    <mxGeometry relative="1" as="geometry"/>
                </mxCell>
                <mxCell id="81" value="" style="edgeStyle=none;html=1;" parent="1" source="h52EhWeXdkFsN7Ld-P_R-12" target="h52EhWeXdkFsN7Ld-P_R-22" edge="1">
                    <mxGeometry relative="1" as="geometry"/>
                </mxCell>
                <mxCell id="h52EhWeXdkFsN7Ld-P_R-12" value="Users" style="sketch=0;pointerEvents=1;shadow=0;dashed=0;html=1;strokeColor=none;labelPosition=center;verticalLabelPosition=bottom;verticalAlign=top;align=center;fillColor=#505050;shape=mxgraph.mscae.intune.user_group;labelBackgroundColor=default;rounded=1;" parent="1" vertex="1">
                    <mxGeometry x="25" y="410.5" width="50" height="37" as="geometry"/>
                </mxCell>
                <mxCell id="82" style="edgeStyle=none;html=1;" parent="1" source="h52EhWeXdkFsN7Ld-P_R-22" target="h52EhWeXdkFsN7Ld-P_R-32" edge="1">
                    <mxGeometry relative="1" as="geometry"/>
                </mxCell>
                <mxCell id="h52EhWeXdkFsN7Ld-P_R-22" value="Gateway" style="sketch=0;points=[[0,0,0],[0.25,0,0],[0.5,0,0],[0.75,0,0],[1,0,0],[0,1,0],[0.25,1,0],[0.5,1,0],[0.75,1,0],[1,1,0],[0,0.25,0],[0,0.5,0],[0,0.75,0],[1,0.25,0],[1,0.5,0],[1,0.75,0]];outlineConnect=0;fontColor=#232F3E;gradientColor=#945DF2;gradientDirection=north;fillColor=#5A30B5;strokeColor=#ffffff;dashed=0;verticalLabelPosition=bottom;verticalAlign=top;align=center;html=1;fontSize=12;fontStyle=0;aspect=fixed;shape=mxgraph.aws4.resourceIcon;resIcon=mxgraph.aws4.api_gateway;labelBackgroundColor=default;rounded=1;" parent="1" vertex="1">
                    <mxGeometry x="150" y="390" width="78" height="78" as="geometry"/>
                </mxCell>
                <mxCell id="h52EhWeXdkFsN7Ld-P_R-32" value="NLB" style="sketch=0;outlineConnect=0;fontColor=#232F3E;gradientColor=none;fillColor=#4D27AA;strokeColor=none;dashed=0;verticalLabelPosition=bottom;verticalAlign=top;align=center;html=1;fontSize=12;fontStyle=0;aspect=fixed;pointerEvents=1;shape=mxgraph.aws4.network_load_balancer;labelBackgroundColor=default;rounded=1;" parent="1" vertex="1">
                    <mxGeometry x="307" y="390" width="78" height="78" as="geometry"/>
                </mxCell>
                <mxCell id="53" style="edgeStyle=orthogonalEdgeStyle;html=1;entryX=0;entryY=0.5;entryDx=0;entryDy=0;startArrow=none;startFill=0;rounded=1;" parent="1" source="h52EhWeXdkFsN7Ld-P_R-35" target="51" edge="1">
                    <mxGeometry relative="1" as="geometry"/>
                </mxCell>
                <mxCell id="57" style="rounded=1;html=1;entryX=0;entryY=0.5;entryDx=0;entryDy=0;startArrow=none;startFill=0;" parent="1" source="h52EhWeXdkFsN7Ld-P_R-35" target="56" edge="1">
                    <mxGeometry relative="1" as="geometry"/>
                </mxCell>
                <mxCell id="65" style="edgeStyle=orthogonalEdgeStyle;rounded=1;html=1;entryX=0;entryY=0.5;entryDx=0;entryDy=0;startArrow=none;startFill=0;" parent="1" source="h52EhWeXdkFsN7Ld-P_R-35" target="62" edge="1">
                    <mxGeometry relative="1" as="geometry"/>
                </mxCell>
                <mxCell id="68" style="edgeStyle=orthogonalEdgeStyle;rounded=1;html=1;startArrow=classic;startFill=1;endArrow=none;endFill=0;" parent="1" source="h52EhWeXdkFsN7Ld-P_R-35" target="h52EhWeXdkFsN7Ld-P_R-32" edge="1">
                    <mxGeometry relative="1" as="geometry"/>
                </mxCell>
                <mxCell id="h52EhWeXdkFsN7Ld-P_R-35" value="Ingress" style="sketch=0;html=1;dashed=0;whitespace=wrap;fillColor=#2875E2;strokeColor=#ffffff;points=[[0.005,0.63,0],[0.1,0.2,0],[0.9,0.2,0],[0.5,0,0],[0.995,0.63,0],[0.72,0.99,0],[0.5,1,0],[0.28,0.99,0]];verticalLabelPosition=bottom;align=center;verticalAlign=top;shape=mxgraph.kubernetes.icon;prIcon=ing;labelBackgroundColor=default;rounded=1;" parent="1" vertex="1">
                    <mxGeometry x="446" y="395" width="70.83" height="68" as="geometry"/>
                </mxCell>
                <mxCell id="h52EhWeXdkFsN7Ld-P_R-50" value="Send to FIFO queue the&lt;br&gt;appointment requests" style="edgeStyle=orthogonalEdgeStyle;html=1;entryX=0.5;entryY=0;entryDx=0;entryDy=0;entryPerimeter=0;rounded=1;exitX=0.75;exitY=1;exitDx=0;exitDy=0;" parent="1" source="62" target="h52EhWeXdkFsN7Ld-P_R-49" edge="1">
                    <mxGeometry x="-0.0948" relative="1" as="geometry">
                        <mxPoint as="offset"/>
                    </mxGeometry>
                </mxCell>
                <mxCell id="43" value="Send patients reviews&lt;br&gt;to be processed" style="edgeStyle=orthogonalEdgeStyle;html=1;entryX=0;entryY=0.5;entryDx=0;entryDy=0;entryPerimeter=0;startArrow=none;startFill=0;endArrow=classic;endFill=1;exitX=0.25;exitY=1;exitDx=0;exitDy=0;" parent="1" source="62" target="22" edge="1">
                    <mxGeometry x="0.3868" relative="1" as="geometry">
                        <Array as="points">
                            <mxPoint x="701" y="1089"/>
                        </Array>
                        <mxPoint as="offset"/>
                        <mxPoint x="700" y="660" as="sourcePoint"/>
                    </mxGeometry>
                </mxCell>
                <mxCell id="h52EhWeXdkFsN7Ld-P_R-45" value="Scheduler DB" style="sketch=0;points=[[0,0,0],[0.25,0,0],[0.5,0,0],[0.75,0,0],[1,0,0],[0,1,0],[0.25,1,0],[0.5,1,0],[0.75,1,0],[1,1,0],[0,0.25,0],[0,0.5,0],[0,0.75,0],[1,0.25,0],[1,0.5,0],[1,0.75,0]];outlineConnect=0;fontColor=#232F3E;gradientColor=#4D72F3;gradientDirection=north;fillColor=#3334B9;strokeColor=#ffffff;dashed=0;verticalLabelPosition=bottom;verticalAlign=top;align=center;html=1;fontSize=12;fontStyle=0;aspect=fixed;shape=mxgraph.aws4.resourceIcon;resIcon=mxgraph.aws4.rds;labelBackgroundColor=default;rounded=1;spacingTop=-4;" parent="1" vertex="1">
                    <mxGeometry x="997" y="426" width="78" height="78" as="geometry"/>
                </mxCell>
                <mxCell id="17" style="edgeStyle=none;html=1;entryX=0;entryY=0.5;entryDx=0;entryDy=0;entryPerimeter=0;" parent="1" source="h52EhWeXdkFsN7Ld-P_R-49" target="h52EhWeXdkFsN7Ld-P_R-53" edge="1">
                    <mxGeometry relative="1" as="geometry"/>
                </mxCell>
                <mxCell id="h52EhWeXdkFsN7Ld-P_R-49" value="Appointment Topic" style="sketch=0;points=[[0,0,0],[0.25,0,0],[0.5,0,0],[0.75,0,0],[1,0,0],[0,1,0],[0.25,1,0],[0.5,1,0],[0.75,1,0],[1,1,0],[0,0.25,0],[0,0.5,0],[0,0.75,0],[1,0.25,0],[1,0.5,0],[1,0.75,0]];outlineConnect=0;fontColor=#232F3E;gradientColor=#FF4F8B;gradientDirection=north;fillColor=#BC1356;strokeColor=#ffffff;dashed=0;verticalLabelPosition=bottom;verticalAlign=top;align=center;html=1;fontSize=12;fontStyle=0;aspect=fixed;shape=mxgraph.aws4.resourceIcon;resIcon=mxgraph.aws4.sns;labelBackgroundColor=default;rounded=1;" parent="1" vertex="1">
                    <mxGeometry x="735" y="908" width="78" height="78" as="geometry"/>
                </mxCell>
                <mxCell id="h52EhWeXdkFsN7Ld-P_R-63" value="Consume the&lt;br&gt;appointment&lt;br&gt;requests in order" style="edgeStyle=orthogonalEdgeStyle;html=1;rounded=1;entryX=1;entryY=0.75;entryDx=0;entryDy=0;" parent="1" source="h52EhWeXdkFsN7Ld-P_R-53" target="62" edge="1">
                    <mxGeometry x="0.6404" y="5" relative="1" as="geometry">
                        <mxPoint x="1700" y="600" as="targetPoint"/>
                        <Array as="points">
                            <mxPoint x="1010" y="950"/>
                            <mxPoint x="1010" y="745"/>
                        </Array>
                        <mxPoint as="offset"/>
                    </mxGeometry>
                </mxCell>
                <mxCell id="h52EhWeXdkFsN7Ld-P_R-53" value="Appointment FIFO&lt;br&gt;Queue" style="sketch=0;points=[[0,0,0],[0.25,0,0],[0.5,0,0],[0.75,0,0],[1,0,0],[0,1,0],[0.25,1,0],[0.5,1,0],[0.75,1,0],[1,1,0],[0,0.25,0],[0,0.5,0],[0,0.75,0],[1,0.25,0],[1,0.5,0],[1,0.75,0]];outlineConnect=0;fontColor=#232F3E;gradientColor=#FF4F8B;gradientDirection=north;fillColor=#BC1356;strokeColor=#ffffff;dashed=0;verticalLabelPosition=bottom;verticalAlign=top;align=center;html=1;fontSize=12;fontStyle=0;aspect=fixed;shape=mxgraph.aws4.resourceIcon;resIcon=mxgraph.aws4.sqs;labelBackgroundColor=default;rounded=1;" parent="1" vertex="1">
                    <mxGeometry x="889.99" y="908" width="78" height="78" as="geometry"/>
                </mxCell>
                <mxCell id="11" style="edgeStyle=orthogonalEdgeStyle;html=1;entryX=1;entryY=0.25;entryDx=0;entryDy=0;startArrow=classic;startFill=1;rounded=0;" parent="1" source="h52EhWeXdkFsN7Ld-P_R-57" target="51" edge="1">
                    <mxGeometry relative="1" as="geometry"/>
                </mxCell>
                <mxCell id="h52EhWeXdkFsN7Ld-P_R-57" value="User Cache" style="sketch=0;aspect=fixed;html=1;points=[];align=center;image;fontSize=12;image=img/lib/mscae/Cache_Redis_Product.svg;labelBackgroundColor=default;strokeColor=default;spacingTop=-4;rounded=1;" parent="1" vertex="1">
                    <mxGeometry x="890.105" y="206" width="64.29" height="54" as="geometry"/>
                </mxCell>
                <mxCell id="h52EhWeXdkFsN7Ld-P_R-47" value="Appointment DB" style="sketch=0;points=[[0,0,0],[0.25,0,0],[0.5,0,0],[0.75,0,0],[1,0,0],[0,1,0],[0.25,1,0],[0.5,1,0],[0.75,1,0],[1,1,0],[0,0.25,0],[0,0.5,0],[0,0.75,0],[1,0.25,0],[1,0.5,0],[1,0.75,0]];outlineConnect=0;fontColor=#232F3E;gradientColor=#4D72F3;gradientDirection=north;fillColor=#3334B9;strokeColor=#ffffff;dashed=0;verticalLabelPosition=bottom;verticalAlign=top;align=center;html=1;fontSize=12;fontStyle=0;aspect=fixed;shape=mxgraph.aws4.resourceIcon;resIcon=mxgraph.aws4.rds;labelBackgroundColor=default;spacingTop=-4;rounded=1;" parent="1" vertex="1">
                    <mxGeometry x="997.1099999999999" y="631" width="78" height="78" as="geometry"/>
                </mxCell>
                <mxCell id="61" style="edgeStyle=orthogonalEdgeStyle;rounded=1;html=1;entryX=1;entryY=0.25;entryDx=0;entryDy=0;startArrow=classic;startFill=1;" parent="1" source="h52EhWeXdkFsN7Ld-P_R-67" target="56" edge="1">
                    <mxGeometry relative="1" as="geometry"/>
                </mxCell>
                <mxCell id="h52EhWeXdkFsN7Ld-P_R-67" value="Scheduler Cache" style="sketch=0;aspect=fixed;html=1;points=[];align=center;image;fontSize=12;image=img/lib/mscae/Cache_Redis_Product.svg;labelBackgroundColor=default;strokeColor=default;spacingTop=-4;rounded=1;" parent="1" vertex="1">
                    <mxGeometry x="889.9950000000001" y="367" width="64.29" height="54" as="geometry"/>
                </mxCell>
                <mxCell id="52" style="html=1;entryX=1;entryY=0.75;entryDx=0;entryDy=0;startArrow=classic;startFill=1;edgeStyle=orthogonalEdgeStyle;" parent="1" source="h52EhWeXdkFsN7Ld-P_R-29" target="51" edge="1">
                    <mxGeometry relative="1" as="geometry"/>
                </mxCell>
                <mxCell id="h52EhWeXdkFsN7Ld-P_R-29" value="User DB" style="sketch=0;points=[[0,0,0],[0.25,0,0],[0.5,0,0],[0.75,0,0],[1,0,0],[0,1,0],[0.25,1,0],[0.5,1,0],[0.75,1,0],[1,1,0],[0,0.25,0],[0,0.5,0],[0,0.75,0],[1,0.25,0],[1,0.5,0],[1,0.75,0]];outlineConnect=0;fontColor=#232F3E;gradientColor=#4D72F3;gradientDirection=north;fillColor=#3334B9;strokeColor=#ffffff;dashed=0;verticalLabelPosition=bottom;verticalAlign=top;align=center;html=1;fontSize=12;fontStyle=0;aspect=fixed;shape=mxgraph.aws4.resourceIcon;resIcon=mxgraph.aws4.rds;labelBackgroundColor=default;rounded=1;spacingTop=-4;" parent="1" vertex="1">
                    <mxGeometry x="997.1099999999999" y="264" width="78" height="78" as="geometry"/>
                </mxCell>
                <mxCell id="25" style="edgeStyle=orthogonalEdgeStyle;html=1;entryX=0;entryY=0.5;entryDx=0;entryDy=0;entryPerimeter=0;startArrow=none;startFill=0;endArrow=classic;endFill=1;" parent="1" source="22" target="23" edge="1">
                    <mxGeometry relative="1" as="geometry"/>
                </mxCell>
                <mxCell id="22" value="Review Topic" style="sketch=0;points=[[0,0,0],[0.25,0,0],[0.5,0,0],[0.75,0,0],[1,0,0],[0,1,0],[0.25,1,0],[0.5,1,0],[0.75,1,0],[1,1,0],[0,0.25,0],[0,0.5,0],[0,0.75,0],[1,0.25,0],[1,0.5,0],[1,0.75,0]];outlineConnect=0;fontColor=#232F3E;gradientColor=#FF4F8B;gradientDirection=north;fillColor=#BC1356;strokeColor=#ffffff;dashed=0;verticalLabelPosition=bottom;verticalAlign=top;align=center;html=1;fontSize=12;fontStyle=0;aspect=fixed;shape=mxgraph.aws4.resourceIcon;resIcon=mxgraph.aws4.sns;labelBackgroundColor=default;rounded=1;" parent="1" vertex="1">
                    <mxGeometry x="734.9999999999999" y="1050" width="78" height="78" as="geometry"/>
                </mxCell>
                <mxCell id="27" value="Process each&lt;br&gt;patiente review" style="edgeStyle=orthogonalEdgeStyle;html=1;entryX=0;entryY=0.5;entryDx=0;entryDy=0;startArrow=none;startFill=0;endArrow=classic;endFill=1;" parent="1" source="23" target="73" edge="1">
                    <mxGeometry relative="1" as="geometry"/>
                </mxCell>
                <mxCell id="23" value="Review Queue" style="sketch=0;points=[[0,0,0],[0.25,0,0],[0.5,0,0],[0.75,0,0],[1,0,0],[0,1,0],[0.25,1,0],[0.5,1,0],[0.75,1,0],[1,1,0],[0,0.25,0],[0,0.5,0],[0,0.75,0],[1,0.25,0],[1,0.5,0],[1,0.75,0]];outlineConnect=0;fontColor=#232F3E;gradientColor=#FF4F8B;gradientDirection=north;fillColor=#BC1356;strokeColor=#ffffff;dashed=0;verticalLabelPosition=bottom;verticalAlign=top;align=center;html=1;fontSize=12;fontStyle=0;aspect=fixed;shape=mxgraph.aws4.resourceIcon;resIcon=mxgraph.aws4.sqs;labelBackgroundColor=default;rounded=1;" parent="1" vertex="1">
                    <mxGeometry x="890.9999999999999" y="1050" width="78" height="78" as="geometry"/>
                </mxCell>
                <mxCell id="3" value="Appointment Files" style="sketch=0;points=[[0,0,0],[0.25,0,0],[0.5,0,0],[0.75,0,0],[1,0,0],[0,1,0],[0.25,1,0],[0.5,1,0],[0.75,1,0],[1,1,0],[0,0.25,0],[0,0.5,0],[0,0.75,0],[1,0.25,0],[1,0.5,0],[1,0.75,0]];outlineConnect=0;fontColor=#232F3E;gradientColor=#60A337;gradientDirection=north;fillColor=#277116;strokeColor=#ffffff;dashed=0;verticalLabelPosition=bottom;verticalAlign=top;align=center;html=1;fontSize=12;fontStyle=0;aspect=fixed;shape=mxgraph.aws4.resourceIcon;resIcon=mxgraph.aws4.s3;labelBackgroundColor=default;spacingTop=-4;" parent="1" vertex="1">
                    <mxGeometry x="883.1399999999998" y="556" width="78" height="78" as="geometry"/>
                </mxCell>
                <mxCell id="78" style="edgeStyle=orthogonalEdgeStyle;html=1;entryX=1;entryY=0.5;entryDx=0;entryDy=0;startArrow=classic;startFill=1;endArrow=none;endFill=0;exitX=0.5;exitY=0;exitDx=0;exitDy=0;" parent="1" source="51" target="73" edge="1">
                    <mxGeometry relative="1" as="geometry">
                        <Array as="points">
                            <mxPoint x="738" y="160"/>
                            <mxPoint x="1320" y="160"/>
                            <mxPoint x="1320" y="1089"/>
                        </Array>
                        <mxPoint x="750" y="20" as="sourcePoint"/>
                    </mxGeometry>
                </mxCell>
                <mxCell id="79" value="Update doctor&lt;br&gt;rating" style="edgeLabel;html=1;align=center;verticalAlign=middle;resizable=0;points=[];" parent="78" vertex="1" connectable="0">
                    <mxGeometry x="0.9257" relative="1" as="geometry">
                        <mxPoint x="14" y="-48" as="offset"/>
                    </mxGeometry>
                </mxCell>
                <mxCell id="51" value="" style="swimlane;startSize=0;" parent="1" vertex="1">
                    <mxGeometry x="664.89" y="197" width="145.14" height="142" as="geometry"/>
                </mxCell>
                <mxCell id="h52EhWeXdkFsN7Ld-P_R-39" value="User Service" style="sketch=0;html=1;dashed=0;whitespace=wrap;fillColor=#2875E2;strokeColor=#ffffff;points=[[0.005,0.63,0],[0.1,0.2,0],[0.9,0.2,0],[0.5,0,0],[0.995,0.63,0],[0.72,0.99,0],[0.5,1,0],[0.28,0.99,0]];verticalLabelPosition=bottom;align=center;verticalAlign=top;shape=mxgraph.kubernetes.icon;prIcon=pod;labelBackgroundColor=default;rounded=1;" parent="51" vertex="1">
                    <mxGeometry x="46.14000000000002" y="43" width="72.92" height="70" as="geometry"/>
                </mxCell>
                <mxCell id="47" value="HPA" style="sketch=0;html=1;dashed=0;whitespace=wrap;fillColor=#2875E2;strokeColor=#ffffff;points=[[0.005,0.63,0],[0.1,0.2,0],[0.9,0.2,0],[0.5,0,0],[0.995,0.63,0],[0.72,0.99,0],[0.5,1,0],[0.28,0.99,0]];verticalLabelPosition=bottom;align=center;verticalAlign=top;shape=mxgraph.kubernetes.icon;prIcon=hpa" parent="51" vertex="1">
                    <mxGeometry x="15.139999999999986" y="12" width="39.58" height="38" as="geometry"/>
                </mxCell>
                <mxCell id="60" style="edgeStyle=orthogonalEdgeStyle;rounded=1;html=1;exitX=1;exitY=0.75;exitDx=0;exitDy=0;entryX=0;entryY=0.5;entryDx=0;entryDy=0;entryPerimeter=0;startArrow=classic;startFill=1;" parent="1" source="56" target="h52EhWeXdkFsN7Ld-P_R-45" edge="1">
                    <mxGeometry relative="1" as="geometry"/>
                </mxCell>
                <mxCell id="56" value="" style="swimlane;startSize=0;" parent="1" vertex="1">
                    <mxGeometry x="664.8900000000001" y="359" width="145.11" height="141" as="geometry"/>
                </mxCell>
                <mxCell id="h52EhWeXdkFsN7Ld-P_R-38" value="Scheduler Service" style="sketch=0;html=1;dashed=0;whitespace=wrap;fillColor=#2875E2;strokeColor=#ffffff;points=[[0.005,0.63,0],[0.1,0.2,0],[0.9,0.2,0],[0.5,0,0],[0.995,0.63,0],[0.72,0.99,0],[0.5,1,0],[0.28,0.99,0]];verticalLabelPosition=bottom;align=center;verticalAlign=top;shape=mxgraph.kubernetes.icon;prIcon=pod;labelBackgroundColor=default;rounded=1;" parent="56" vertex="1">
                    <mxGeometry x="46.13999999999991" y="35.5" width="72.92" height="70" as="geometry"/>
                </mxCell>
                <mxCell id="46" value="HPA" style="sketch=0;html=1;dashed=0;whitespace=wrap;fillColor=#2875E2;strokeColor=#ffffff;points=[[0.005,0.63,0],[0.1,0.2,0],[0.9,0.2,0],[0.5,0,0],[0.995,0.63,0],[0.72,0.99,0],[0.5,1,0],[0.28,0.99,0]];verticalLabelPosition=bottom;align=center;verticalAlign=top;shape=mxgraph.kubernetes.icon;prIcon=hpa" parent="56" vertex="1">
                    <mxGeometry x="15.109999999999786" y="10" width="39.58" height="38" as="geometry"/>
                </mxCell>
                <mxCell id="63" style="edgeStyle=orthogonalEdgeStyle;rounded=0;html=1;exitX=1;exitY=0.25;exitDx=0;exitDy=0;entryX=0;entryY=0.5;entryDx=0;entryDy=0;entryPerimeter=0;startArrow=classic;startFill=1;" parent="1" source="62" target="3" edge="1">
                    <mxGeometry relative="1" as="geometry"/>
                </mxCell>
                <mxCell id="64" style="edgeStyle=orthogonalEdgeStyle;rounded=0;html=1;exitX=1;exitY=0.5;exitDx=0;exitDy=0;entryX=0;entryY=0.5;entryDx=0;entryDy=0;entryPerimeter=0;startArrow=classic;startFill=1;" parent="1" source="62" target="h52EhWeXdkFsN7Ld-P_R-47" edge="1">
                    <mxGeometry relative="1" as="geometry"/>
                </mxCell>
                <mxCell id="62" value="" style="swimlane;startSize=0;" parent="1" vertex="1">
                    <mxGeometry x="664.89" y="520" width="145.11" height="300" as="geometry"/>
                </mxCell>
                <mxCell id="h52EhWeXdkFsN7Ld-P_R-40" value="Appointment Service" style="sketch=0;html=1;dashed=0;whitespace=wrap;fillColor=#2875E2;strokeColor=#ffffff;points=[[0.005,0.63,0],[0.1,0.2,0],[0.9,0.2,0],[0.5,0,0],[0.995,0.63,0],[0.72,0.99,0],[0.5,1,0],[0.28,0.99,0]];verticalLabelPosition=bottom;align=center;verticalAlign=top;shape=mxgraph.kubernetes.icon;prIcon=pod;labelBackgroundColor=default;rounded=1;" parent="62" vertex="1">
                    <mxGeometry x="46.13999999999991" y="40" width="72.92" height="70" as="geometry"/>
                </mxCell>
                <mxCell id="45" value="HPA" style="sketch=0;html=1;dashed=0;whitespace=wrap;fillColor=#2875E2;strokeColor=#ffffff;points=[[0.005,0.63,0],[0.1,0.2,0],[0.9,0.2,0],[0.5,0,0],[0.995,0.63,0],[0.72,0.99,0],[0.5,1,0],[0.28,0.99,0]];verticalLabelPosition=bottom;align=center;verticalAlign=top;shape=mxgraph.kubernetes.icon;prIcon=hpa" parent="62" vertex="1">
                    <mxGeometry x="15.109999999999914" y="10" width="39.58" height="38" as="geometry"/>
                </mxCell>
                <mxCell id="71" value="Appointment Creator&lt;br style=&quot;border-color: var(--border-color);&quot;&gt;Service" style="sketch=0;html=1;dashed=0;whitespace=wrap;fillColor=#2875E2;strokeColor=#ffffff;points=[[0.005,0.63,0],[0.1,0.2,0],[0.9,0.2,0],[0.5,0,0],[0.995,0.63,0],[0.72,0.99,0],[0.5,1,0],[0.28,0.99,0]];verticalLabelPosition=bottom;align=center;verticalAlign=top;shape=mxgraph.kubernetes.icon;prIcon=pod;labelBackgroundColor=default;rounded=1;" parent="62" vertex="1">
                    <mxGeometry x="46.13999999999987" y="190" width="72.92" height="70" as="geometry"/>
                </mxCell>
                <mxCell id="72" value="HPA" style="sketch=0;html=1;dashed=0;whitespace=wrap;fillColor=#2875E2;strokeColor=#ffffff;points=[[0.005,0.63,0],[0.1,0.2,0],[0.9,0.2,0],[0.5,0,0],[0.995,0.63,0],[0.72,0.99,0],[0.5,1,0],[0.28,0.99,0]];verticalLabelPosition=bottom;align=center;verticalAlign=top;shape=mxgraph.kubernetes.icon;prIcon=hpa" parent="62" vertex="1">
                    <mxGeometry x="15.1099999999999" y="160" width="39.58" height="38" as="geometry"/>
                </mxCell>
                <mxCell id="73" value="" style="swimlane;startSize=0;" parent="1" vertex="1">
                    <mxGeometry x="1100" y="1012" width="145.11" height="154" as="geometry"/>
                </mxCell>
                <mxCell id="74" value="Review Processor&lt;br style=&quot;border-color: var(--border-color);&quot;&gt;Service" style="sketch=0;html=1;dashed=0;whitespace=wrap;fillColor=#2875E2;strokeColor=#ffffff;points=[[0.005,0.63,0],[0.1,0.2,0],[0.9,0.2,0],[0.5,0,0],[0.995,0.63,0],[0.72,0.99,0],[0.5,1,0],[0.28,0.99,0]];verticalLabelPosition=bottom;align=center;verticalAlign=top;shape=mxgraph.kubernetes.icon;prIcon=pod;labelBackgroundColor=default;rounded=1;" parent="73" vertex="1">
                    <mxGeometry x="46.13999999999991" y="40" width="72.92" height="70" as="geometry"/>
                </mxCell>
                <mxCell id="75" value="HPA" style="sketch=0;html=1;dashed=0;whitespace=wrap;fillColor=#2875E2;strokeColor=#ffffff;points=[[0.005,0.63,0],[0.1,0.2,0],[0.9,0.2,0],[0.5,0,0],[0.995,0.63,0],[0.72,0.99,0],[0.5,1,0],[0.28,0.99,0]];verticalLabelPosition=bottom;align=center;verticalAlign=top;shape=mxgraph.kubernetes.icon;prIcon=hpa" parent="73" vertex="1">
                    <mxGeometry x="15.109999999999914" y="10" width="39.58" height="38" as="geometry"/>
                </mxCell>
            </root>
        </mxGraphModel>
    </diagram>
</mxfile>